<?xml version="1.0" standalone="no"?>
<!DOCTYPE svg PUBLIC "-//W3C//DTD SVG 1.1//EN" "http://www.w3.org/Graphics/SVG/1.1/DTD/svg11.dtd">
<svg width="60px" height="60px" version="1.1" xmlns="http://www.w3.org/2000/svg" xmlns:xlink="http://www.w3.org/1999/xlink" xml:space="preserve" style="fill-rule:evenodd;clip-rule:evenodd;stroke-linejoin:round;stroke-miterlimit:1.41421;">
    <g>
        <g id="Layer1">
            <g>
                <path d="M46.5543,27.3115C46.5543,27.3115 47.4683,26.1749 47.385,25.1994C47.3018,24.2257 46.7986,20.1952 46.5543,19.4314C46.2231,18.407 46.0331,18.2786 46.0331,18.2786C46.0331,18.2786 46.8927,17.4696 47.6963,16.8488C48.3841,16.3203 51.906,14.5792 51.8934,13.7087C51.8879,13.2508 51.678,12.5558 50.6047,12.2753C49.736,12.0491 47.7416,11.3939 46.2738,10.688C46.2738,10.688 45.6096,9.1768 42.8893,7.03938C42.1346,6.44754 42.6903,4.75353 41.7347,4.21783C37.5829,1.88313 27.5183,-0.194613 20.1649,3.54818C8.40262,9.53335 8.42073,21.2485 9.07951,27.06C9.11209,27.3586 8.06961,28.5712 8.10762,28.8354C8.31394,30.3032 8.84785,32.1167 8.84785,32.1167C9.11028,32.8623 11.892,30.9765 12.1074,31.5031C13.4992,34.8966 14.1543,32.9076 14.8366,34.3591C15.461,35.6875 17.5333,38.6864 16.9524,39.9859C16.3696,41.2854 15.204,42.3478 14.6231,42.3424C14.4765,42.3405 14.5362,41.9641 14.3643,41.9297C13.4992,41.756 11.4124,41.9043 11.302,41.9134C10.6179,41.9695 10.7174,45.1132 11.9517,47.7285C13.9679,51.9925 17.622,54.8122 22.1086,56.642C26.3075,58.3577 30.4448,58.4898 32.1081,58.5043C34.1152,58.5206 36.2581,58.3812 35.7622,57.2537C35.2391,56.061 34.4591,53.4168 33.9161,52.7327C33.5831,52.311 32.0646,52.1717 32.0845,51.2993C32.0954,50.8849 32.5623,49.9202 32.9171,49.6542C33.5614,49.1655 33.6645,48.1918 34.1641,47.5421C34.6636,46.8905 35.9106,46.0797 37.5738,46.4036C39.2353,46.7294 41.4813,47.2163 42.5636,46.8905C43.6441,46.5665 44.4114,45.8553 44.4748,45.1042C44.4947,44.8616 44.558,43.2364 44.891,42.6663C45.2241,42.098 46.0475,41.6818 46.2828,41.2456C46.824,40.2502 45.3888,39.4991 45.7236,39.3362C46.0548,39.1733 46.8439,39.376 47.1769,39.2131C47.5099,39.052 47.385,38.4421 47.385,37.9534C47.385,37.4666 47.3018,36.7354 47.8013,36.6558C48.3008,36.5743 49.7143,36.6558 50.0455,36.4929C50.3767,36.33 51.126,35.4359 50.7115,34.4605C50.2953,33.4849 48.3008,29.9123 47.8845,29.0997C47.4683,28.287 46.8041,27.9631 46.5543,27.3115Z" style="fill:rgb(221,151,0);fill-rule:nonzero;"/>
            </g>
        </g>
    </g>
</svg>
